<svg xmlns="http://www.w3.org/2000/svg" width="44.291" height="44.292" viewBox="0 0 44.291 44.292">
  <g id="time_verde" transform="translate(22.146 22.146)">
    <g id="Grupo_22277" data-name="Grupo 22277" transform="translate(-21.165 -21.165)">
      <path id="Caminho_34500" data-name="Caminho 34500" d="M44.379,23.214A21.165,21.165,0,1,1,23.214,2.049,21.165,21.165,0,0,1,44.379,23.214" transform="translate(-2.049 -2.049)" fill="#00ff06"/>
      <path id="Caminho_34501" data-name="Caminho 34501" d="M44.379,23.214A21.165,21.165,0,1,1,23.214,2.049,21.165,21.165,0,0,1,44.379,23.214Z" transform="translate(-2.049 -2.049)" fill="none" stroke="#000" stroke-width="1.961"/>
      <g id="Grupo_22276" data-name="Grupo 22276" transform="translate(11.326 0.483)">
        <g id="Grupo_22273" data-name="Grupo 22273" transform="translate(0 30.144)">
          <path id="Caminho_34502" data-name="Caminho 34502" d="M35.49,77.284a22.846,22.846,0,0,1-8.231-1.321,2.108,2.108,0,0,1-1.538-1.826l.062-4.764a1.925,1.925,0,0,1,1.139-1.6c1.191-.65,3.908-1.736,8.713-1.709,4.854.028,7.55,1.21,8.725,1.912A1.874,1.874,0,0,1,45.4,69.554l-.062,4.755c-.011.782-.672,1.5-1.728,1.862a24.455,24.455,0,0,1-8.12,1.112" transform="translate(-25.721 -66.063)" fill="#ddd"/>
          <path id="Caminho_34503" data-name="Caminho 34503" d="M43.61,73.775a24.458,24.458,0,0,1-8.12,1.112,22.844,22.844,0,0,1-8.232-1.321,2.436,2.436,0,0,1-1.436-1.279,1.4,1.4,0,0,0-.039.3l-.062,4.764a2.108,2.108,0,0,0,1.537,1.826A22.852,22.852,0,0,0,35.49,80.5a24.456,24.456,0,0,0,8.12-1.112c1.056-.366,1.718-1.08,1.728-1.862l.062-4.755a1.452,1.452,0,0,0-.1-.543A2.417,2.417,0,0,1,43.61,73.775Z" transform="translate(-25.721 -69.277)" fill="#abb7bb"/>
          <path id="Caminho_34504" data-name="Caminho 34504" d="M36.932,84.141c.011-.113.015-.412.016-.783,0-1.217.579-2.175,1.255-2.076a25.562,25.562,0,0,0,3.2.3,25.646,25.646,0,0,0,3.215-.3c.677-.1,1.255.862,1.255,2.082V84.8" transform="translate(-31.568 -73.996)" fill="none" stroke="#737373" stroke-width="0.448"/>
          <path id="Caminho_34505" data-name="Caminho 34505" d="M35.49,77.284a22.846,22.846,0,0,1-8.231-1.321,2.108,2.108,0,0,1-1.538-1.826l.062-4.764a1.925,1.925,0,0,1,1.139-1.6c1.191-.65,3.908-1.736,8.713-1.709,4.854.028,7.55,1.21,8.725,1.912A1.874,1.874,0,0,1,45.4,69.554l-.062,4.755c-.011.782-.672,1.5-1.728,1.862a24.455,24.455,0,0,1-8.12,1.112" transform="translate(-25.721 -66.063)" fill="none" stroke="#222121" stroke-width="1.369"/>
        </g>
        <path id="Caminho_34506" data-name="Caminho 34506" d="M43.636,17.492l-4.1-1.3a6.294,6.294,0,0,0-3.815,0l-4.1,1.3c-1.18.373-1.908,1.062-1.908,1.808v8.083c0,.746.727,1.435,1.908,1.808L36.089,30.6a.176.176,0,0,1,0,.321l-4.475,1.414c-1.18.373-1.908,1.062-1.908,1.808v7.262c0,.746.727,1.435,1.908,1.808l4.1,1.3a6.294,6.294,0,0,0,3.815,0l4.1-1.3c1.181-.373,1.908-1.062,1.908-1.808V34.147c0-.746-.727-1.435-1.908-1.808l-4.475-1.414a.176.176,0,0,1,0-.321l4.475-1.414c1.181-.373,1.908-1.062,1.908-1.808V19.3C45.544,18.554,44.817,17.865,43.636,17.492Z" transform="translate(-27.799 -9.756)" fill="none" stroke="#7e8587" stroke-width="0.907"/>
        <path id="Caminho_34507" data-name="Caminho 34507" d="M32.486,35.328h0a1.339,1.339,0,0,0,.8,1.286l5.791,2.111L44.9,36.758a1.332,1.332,0,0,0,.821-1.294v-.135a1.311,1.311,0,0,0-.9-1.317l-4.311-1.069a5.833,5.833,0,0,0-2.82,0l-4.311,1.069A1.311,1.311,0,0,0,32.486,35.328Z" transform="translate(-29.249 -18.555)" fill="#8f00ff"/>
        <path id="Caminho_34508" data-name="Caminho 34508" d="M32.422,61.388h0a1.339,1.339,0,0,0,.8,1.286l3.8,1.384a5.988,5.988,0,0,0,4,.05l3.822-1.29a1.332,1.332,0,0,0,.821-1.294v-.135c0-.446.015-2.037.024-2.951a.758.758,0,0,0-.537-.776l-4.7-1.018a5.822,5.822,0,0,0-2.82,0l-4.687,1.151a.76.76,0,0,0-.522.764Z" transform="translate(-29.216 -30.916)" fill="#8f00ff"/>
        <path id="Caminho_34509" data-name="Caminho 34509" d="M39.618,62.323a14.857,14.857,0,0,1-7.1-1.1c-.033-.016-.062-.034-.092-.052v2.534a1.339,1.339,0,0,0,.8,1.286l3.8,1.384a5.988,5.988,0,0,0,4,.05l3.822-1.29a1.332,1.332,0,0,0,.821-1.294v-.135c0-.421.013-1.861.022-2.79A22.294,22.294,0,0,1,39.618,62.323Z" transform="translate(-29.216 -33.236)" fill="#cd00ff"/>
        <path id="Caminho_34510" data-name="Caminho 34510" d="M45.529,35.98a15.951,15.951,0,0,1-3.687,1.307,1.057,1.057,0,0,0,.026-.26,1.02,1.02,0,0,0-.085-.45.9.9,0,0,0-.2-.375l-.2-.183a.864.864,0,0,0-.495-.159l-.26.042a.95.95,0,0,0-.432.3.56.56,0,0,0-.038.044.193.193,0,0,0-.014.02c-.049.073-.111.16-.159.245l0,0v0a1.341,1.341,0,0,0-.135.592,1.092,1.092,0,0,0,.035.312,1.047,1.047,0,0,0,.041.131,9.407,9.407,0,0,1-6.369-1.819,1.563,1.563,0,0,1-.286-.281,1.432,1.432,0,0,0,.017,2.56l5.791,2.111L44.9,38.158a1.332,1.332,0,0,0,.821-1.294v-.135A1.522,1.522,0,0,0,45.529,35.98Z" transform="translate(-29.249 -19.955)" fill="#cd00ff"/>
        <path id="Caminho_34511" data-name="Caminho 34511" d="M44.452,36.8a.658.658,0,0,0-.135-.277l-.106-.1a.463.463,0,0,0-.265-.086.344.344,0,0,0-.2.054.4.4,0,0,0-.169.129.487.487,0,0,0-.109.2.544.544,0,0,0-.045.241l.019.167a.661.661,0,0,0,.135.276l.106.1a.462.462,0,0,0,.266.085.344.344,0,0,0,.2-.054.387.387,0,0,0,.169-.129.489.489,0,0,0,.109-.2.543.543,0,0,0,.045-.241Z" transform="translate(-34.951 -20.415)" fill="#cd00ff"/>
        <path id="Caminho_34512" data-name="Caminho 34512" d="M47.333,35.562l-.012-.106-.033-.095c0-.01-.013-.015-.019-.024l-.052-.081a.271.271,0,0,0-.117-.089.28.28,0,0,0-.279,0,.269.269,0,0,0-.116.089.339.339,0,0,0-.075.139.378.378,0,0,0-.031.166l.013.115a.456.456,0,0,0,.093.19l.073.067a.321.321,0,0,0,.183.059l.1-.015a.261.261,0,0,0,.123-.078.322.322,0,0,0,.045-.058.262.262,0,0,0,.036-.04.165.165,0,0,0,.01-.021l0,0v0a.221.221,0,0,0,.03-.06A.357.357,0,0,0,47.333,35.562Z" transform="translate(-36.609 -19.786)" fill="#cd00ff"/>
        <path id="Caminho_34513" data-name="Caminho 34513" d="M41.049,35.87a.243.243,0,0,0-.055-.1l-.054-.049a.231.231,0,0,0-.133-.043l-.07.011a.259.259,0,0,0-.117.081l-.022.026a.243.243,0,0,0-.055.1.33.33,0,0,0,0,.242.243.243,0,0,0,.055.1l.054.049a.231.231,0,0,0,.133.043l.07-.011a.259.259,0,0,0,.117-.081l.022-.026a.243.243,0,0,0,.055-.1.33.33,0,0,0,0-.242Z" transform="translate(-33.44 -20.071)" fill="#cd00ff"/>
        <path id="Caminho_34514" data-name="Caminho 34514" d="M53.858,37.528c0-.009-.006-.018-.009-.027l-.028-.079a.239.239,0,0,0-.072-.094.133.133,0,0,0-.062-.043.179.179,0,0,0-.108-.029H53.56l-.082.013a.223.223,0,0,0-.1.066.167.167,0,0,0-.056.066.2.2,0,0,0-.04.081.318.318,0,0,0-.026.142l.011.1.031.088a.264.264,0,0,0,.08.1.147.147,0,0,0,.068.047.135.135,0,0,0,.078.025.2.2,0,0,0,.123-.006l.074-.037.062-.057.049-.075a.313.313,0,0,0,.036-.137A.331.331,0,0,0,53.858,37.528Z" transform="translate(-40.079 -20.895)" fill="#cd00ff"/>
        <path id="Caminho_34515" data-name="Caminho 34515" d="M46.366,44.483c-.006-.121-.008-.242-.017-.363a3.385,3.385,0,0,0-.087-.445.454.454,0,0,0-.165-.261l0-.007a.233.233,0,0,0-.368,0l0,.007a.452.452,0,0,0-.165.261,3.023,3.023,0,0,0-.087.445c-.008.121-.011.242-.017.363-.011.241-.013.483-.017.724a.481.481,0,1,0,.948,0C46.379,44.966,46.378,44.724,46.366,44.483Z" transform="translate(-36.003 -24.056)" fill="#cd00ff"/>
        <g id="Grupo_22274" data-name="Grupo 22274" transform="translate(9.138 19.385)">
          <path id="Caminho_34516" data-name="Caminho 34516" d="M46.33,46.432c-.037-.453-.12-.9-.2-1.341a4.425,4.425,0,0,1-.13-.98.242.242,0,0,0-.439-.178.386.386,0,0,0-.124-.325.173.173,0,0,0-.2,0,.21.21,0,0,0-.073.089v0a1.555,1.555,0,0,0-.147.5c-.053.279-.088.566-.118.849a8.531,8.531,0,0,0-.036,1.9c.056.473.257,1.068.743,1.016C46.268,47.9,46.383,47.081,46.33,46.432Z" transform="translate(-44.82 -43.575)" fill="#cd00ff"/>
          <path id="Caminho_34517" data-name="Caminho 34517" d="M46.307,51.4h0Z" transform="translate(-45.593 -47.656)" fill="#cd00ff"/>
        </g>
        <path id="Caminho_34518" data-name="Caminho 34518" d="M39.362,61.531a1.258,1.258,0,0,0-.256-.525l-.2-.186a.876.876,0,0,0-.5-.162.653.653,0,0,0-.385.1.748.748,0,0,0-.322.246.927.927,0,0,0-.206.383,1.034,1.034,0,0,0-.086.458l.036.316a1.258,1.258,0,0,0,.256.525l.2.186a.876.876,0,0,0,.5.163.657.657,0,0,0,.385-.1.747.747,0,0,0,.322-.245.926.926,0,0,0,.206-.383,1.037,1.037,0,0,0,.086-.458Z" transform="translate(-31.812 -33.1)" fill="#cd00ff"/>
        <path id="Caminho_34519" data-name="Caminho 34519" d="M44.329,59.08a.985.985,0,0,0-.2-.411l-.158-.146a.686.686,0,0,0-.4-.128.515.515,0,0,0-.3.08.588.588,0,0,0-.252.193.722.722,0,0,0-.162.3.817.817,0,0,0-.068.36l.028.248a.984.984,0,0,0,.2.412l.159.146a.687.687,0,0,0,.4.127.514.514,0,0,0,.3-.08.584.584,0,0,0,.252-.193.725.725,0,0,0,.162-.3.808.808,0,0,0,.067-.359C44.348,59.245,44.338,59.162,44.329,59.08Z" transform="translate(-34.623 -31.919)" fill="#cd00ff"/>
        <path id="Caminho_34520" data-name="Caminho 34520" d="M48.921,59.488c-.606,0-.607,1.121,0,1.121S49.528,59.488,48.921,59.488Z" transform="translate(-37.584 -32.49)" fill="#cd00ff"/>
        <path id="Caminho_34521" data-name="Caminho 34521" d="M40.332,59.116a.3.3,0,0,0-.006-.054.2.2,0,0,0-.021-.047v0l0,0a.208.208,0,0,0-.017-.039.2.2,0,0,0-.066-.073.236.236,0,0,0-.067-.03.232.232,0,0,0-.232.026.316.316,0,0,0-.1.12.387.387,0,0,0-.038.169h0l.01.089.028.08.044.067a.214.214,0,0,0,.09.069.124.124,0,0,0,.071.022.117.117,0,0,0,.075,0,.123.123,0,0,0,.071-.022.214.214,0,0,0,.09-.069h0l.044-.067a.28.28,0,0,0,.033-.124.2.2,0,0,0,0-.089C40.337,59.129,40.333,59.123,40.332,59.116Z" transform="translate(-33.053 -32.154)" fill="#cd00ff"/>
        <path id="Caminho_34522" data-name="Caminho 34522" d="M53.952,60.031l-.027-.076a.234.234,0,0,0-.068-.089h0l0-.006a.229.229,0,0,0-.1-.075.236.236,0,0,0-.234,0,.231.231,0,0,0-.1.075.28.28,0,0,0-.063.116.318.318,0,0,0-.026.14l.011.1a.385.385,0,0,0,.078.16l.062.056a.267.267,0,0,0,.154.05l.081-.013a.223.223,0,0,0,.1-.065s0-.007.008-.01h0a.222.222,0,0,0,.075-.082.167.167,0,0,0,.034-.07.275.275,0,0,0,.023-.122Z" transform="translate(-40.121 -32.628)" fill="#cd00ff"/>
        <path id="Caminho_34523" data-name="Caminho 34523" d="M47.64,57.756a.151.151,0,0,0-.031-.063l-.024-.022a.1.1,0,0,0-.061-.02.079.079,0,0,0-.046.012.092.092,0,0,0-.039.03.113.113,0,0,0-.025.046.121.121,0,0,0-.01.055l0,.038a.151.151,0,0,0,.031.063l.024.022a.1.1,0,0,0,.061.02.079.079,0,0,0,.046-.012.093.093,0,0,0,.039-.03.107.107,0,0,0,.025-.046.127.127,0,0,0,.011-.056Z" transform="translate(-37.029 -31.532)" fill="#cd00ff"/>
        <path id="Caminho_34524" data-name="Caminho 34524" d="M46.734,60.934c-.4,0-.4.746,0,.746S47.138,60.934,46.734,60.934Z" transform="translate(-36.523 -33.244)" fill="#cd00ff"/>
        <path id="Caminho_34525" data-name="Caminho 34525" d="M36.453,32.51l-4.175-1.293a1.225,1.225,0,0,1-.88-1.16v-6.42a1.263,1.263,0,0,1,1.661-1.161l4.175,1.293a1.226,1.226,0,0,1,.88,1.161v6.42A1.262,1.262,0,0,1,36.453,32.51Z" transform="translate(-28.682 -13.155)" fill="#fff" opacity="0.41"/>
        <path id="Caminho_34526" data-name="Caminho 34526" d="M36.453,62.445l-4.175-1.293a1.226,1.226,0,0,1-.88-1.161v-6.42a1.263,1.263,0,0,1,1.661-1.161L37.234,53.7a1.226,1.226,0,0,1,.88,1.161v6.42A1.263,1.263,0,0,1,36.453,62.445Z" transform="translate(-28.682 -28.767)" fill="#fff" opacity="0.41"/>
        <g id="Grupo_22275" data-name="Grupo 22275">
          <path id="Caminho_34527" data-name="Caminho 34527" d="M35.49,14.279a22.838,22.838,0,0,1-8.231-1.321,2.109,2.109,0,0,1-1.538-1.826l.062-4.764a1.925,1.925,0,0,1,1.139-1.6c1.191-.65,3.908-1.735,8.713-1.709,4.854.027,7.55,1.21,8.725,1.912A1.874,1.874,0,0,1,45.4,6.55l-.062,4.755c-.011.782-.672,1.5-1.728,1.862a24.459,24.459,0,0,1-8.12,1.112" transform="translate(-25.721 -3.059)" fill="#747474"/>
          <path id="Caminho_34528" data-name="Caminho 34528" d="M43.61,10.771a24.459,24.459,0,0,1-8.12,1.112,22.844,22.844,0,0,1-8.232-1.321,2.437,2.437,0,0,1-1.436-1.279,1.4,1.4,0,0,0-.039.3l-.062,4.764a2.109,2.109,0,0,0,1.537,1.826,22.844,22.844,0,0,0,8.232,1.321,24.459,24.459,0,0,0,8.12-1.112c1.056-.366,1.718-1.08,1.728-1.862L45.4,9.764a1.448,1.448,0,0,0-.1-.543A2.417,2.417,0,0,1,43.61,10.771Z" transform="translate(-25.721 -6.273)" fill="#abb7bb"/>
          <path id="Caminho_34529" data-name="Caminho 34529" d="M36.932,21.136c.011-.113.015-.412.016-.783,0-1.217.579-2.175,1.255-2.077a25.565,25.565,0,0,0,3.2.3,25.555,25.555,0,0,0,3.215-.3c.677-.1,1.255.863,1.255,2.082v1.435" transform="translate(-31.568 -10.991)" fill="none" stroke="#737373" stroke-width="0.448"/>
          <path id="Caminho_34530" data-name="Caminho 34530" d="M35.49,14.279a22.838,22.838,0,0,1-8.231-1.321,2.109,2.109,0,0,1-1.538-1.826l.062-4.764a1.925,1.925,0,0,1,1.139-1.6c1.191-.65,3.908-1.735,8.713-1.709,4.854.027,7.55,1.21,8.725,1.912A1.874,1.874,0,0,1,45.4,6.55l-.062,4.755c-.011.782-.672,1.5-1.728,1.862a24.459,24.459,0,0,1-8.12,1.112" transform="translate(-25.721 -3.059)" fill="none" stroke="#222121" stroke-width="1.369"/>
        </g>
        <ellipse id="Elipse_1236" data-name="Elipse 1236" cx="5.3" cy="1.232" rx="5.3" ry="1.232" transform="translate(4.899 1.913)" fill="#8f00ff"/>
        <ellipse id="Elipse_1237" data-name="Elipse 1237" cx="3.345" cy="0.777" rx="3.345" ry="0.777" transform="translate(6.854 2.71)" fill="#cd00ff"/>
      </g>
    </g>
  </g>
</svg>
