<svg xmlns="http://www.w3.org/2000/svg" width="99.883" height="99.883" viewBox="0 0 99.883 99.883">
  <g id="Arte_117" data-name="Arte 117" transform="translate(34.897 -4.411) rotate(26)">
    <g id="Grupo_164" data-name="Grupo 164" transform="translate(0 0)">
      <g id="Grupo_162" data-name="Grupo 162" transform="translate(0 4.908)">
        <ellipse id="Elipse_57" data-name="Elipse 57" cx="35.695" cy="35.695" rx="35.695" ry="35.695" transform="translate(1.654 1.653)" fill="#0dff13"/>
        <path id="Caminho_98" data-name="Caminho 98" d="M37.349,74.7A37.349,37.349,0,1,1,74.7,37.349,37.391,37.391,0,0,1,37.349,74.7Zm0-71.39A34.041,34.041,0,1,0,71.391,37.349,34.081,34.081,0,0,0,37.349,3.307Z" transform="translate(0 0)"/>
      </g>
      <g id="Grupo_163" data-name="Grupo 163" transform="translate(12.929 0)">
        <path id="Caminho_99" data-name="Caminho 99" d="M48.4,6.149,42.909.476A1.561,1.561,0,0,0,41.788,0H35.721a1.561,1.561,0,0,0-1.561,1.561V3.648H14.681V1.561A1.561,1.561,0,0,0,13.12,0H7.052A1.562,1.562,0,0,0,5.93.476L.439,6.148A1.56,1.56,0,0,0,0,7.234V35.267a1.561,1.561,0,0,0,.44,1.086l9.808,10.115a1.563,1.563,0,0,0,1.121.474h26.1a1.561,1.561,0,0,0,1.121-.474L48.4,36.353a1.562,1.562,0,0,0,.44-1.086V7.234A1.561,1.561,0,0,0,48.4,6.149Z" transform="translate(0)" fill="#ff1"/>
        <path id="Caminho_100" data-name="Caminho 100" d="M30.688,5.946l-4.3-4.9A3.079,3.079,0,0,0,24.071,0H7.382A3.081,3.081,0,0,0,5.067,1.048l-4.3,4.9A3.081,3.081,0,0,0,0,7.98V29.2a3.08,3.08,0,0,0,.716,1.975l3.673,4.4a1.877,1.877,0,0,0,1.44.674h19.8a1.875,1.875,0,0,0,1.44-.674l3.673-4.4a3.084,3.084,0,0,0,.716-1.975V7.98A3.081,3.081,0,0,0,30.688,5.946Z" transform="translate(8.693 3.648)" fill="#abaaa1"/>
        <path id="Caminho_101" data-name="Caminho 101" d="M3.107,0H28.547A2.855,2.855,0,0,1,31.4,2.866L31.33,21.791a2.859,2.859,0,0,1-.6,1.737l-3.642,4.7a2.855,2.855,0,0,1-2.206,1.107l-18.451.331a2.856,2.856,0,0,1-2.247-1.03L.66,24.4A2.856,2.856,0,0,1,0,22.535L.252,2.819A2.855,2.855,0,0,1,3.107,0Z" transform="translate(8.82 10.086)" fill="#7e6861"/>
        <path id="Caminho_102" data-name="Caminho 102" d="M0,5.947,5.675.149,24.247,0l5.675,5.947Z" transform="translate(9.459 2.971)" fill="#fff"/>
        <path id="Caminho_103" data-name="Caminho 103" d="M8.045,0a16.689,16.689,0,0,1,.863,11.262C7.094,17.135.733,18.154,0,23.587A72.97,72.97,0,0,0,5.016,29.67l5.372.138s.42-5.937,3.528-10.341S23.07,5.146,22.984,0Z" transform="translate(8.807 10.086)" fill="#94786e"/>
        <path id="Caminho_104" data-name="Caminho 104" d="M9.769,0S6.425,13.767,3.045,19.639.01,29.808.01,29.808l7.095-.47s-.716-7.108.542-10.648,5.772-7.081,5.977-13.558C13.547,1.541,13.482,0,9.769,0Z" transform="translate(26.6 10.086)" fill="#94786e"/>
        <path id="Caminho_105" data-name="Caminho 105" d="M24.679,18.644V4.741a.019.019,0,0,1,.006-.015l.934-.934a2.232,2.232,0,0,0,.471-2.587A2.195,2.195,0,0,0,22.58.641l-.848.848a.022.022,0,0,1-.016.007H4.6a.022.022,0,0,1-.015-.007L3.736.641a2.189,2.189,0,0,0-3.095,0h0a2.188,2.188,0,0,0,0,3.094l1,1a.021.021,0,0,1,.006.015V18.631a.019.019,0,0,1-.006.015l-.9.9a2.284,2.284,0,0,0-.17,3.124,2.189,2.189,0,0,0,3.163.072l.845-.846a.024.024,0,0,1,.015-.006H21.72a.024.024,0,0,1,.015.006l.789.789a2.231,2.231,0,0,0,2.587.471,2.2,2.2,0,0,0,.564-3.509l-.99-.99A.021.021,0,0,1,24.679,18.644Z" transform="translate(11.256 11.777)" fill="red"/>
        <path id="Caminho_106" data-name="Caminho 106" d="M7.945,0,0,8.361V34.268l2.866-.8L2.752,10.088,8.739,3.441Z" transform="translate(5.941 0.207)" fill="#e9be08"/>
        <path id="Caminho_107" data-name="Caminho 107" d="M.794,0,8.739,8.361V34.268l-2.866-.8.114-23.378L0,3.441Z" transform="translate(34.247 0.207)" fill="#e9be08"/>
        <path id="Caminho_108" data-name="Caminho 108" d="M44.644,0H41.535a1.382,1.382,0,0,0-1.381,1.382V26.459a1.38,1.38,0,0,1-.3.865L34.84,33.566a1.382,1.382,0,0,1-1.078.517h-21.5a1.383,1.383,0,0,1-1.078-.517L6.176,27.323a1.38,1.38,0,0,1-.3-.865V1.382A1.382,1.382,0,0,0,4.49,0H1.381A1.382,1.382,0,0,0,0,1.382V27.424a1.379,1.379,0,0,0,.383.955L9.4,37.8a1.38,1.38,0,0,0,1,.427H35.63a1.38,1.38,0,0,0,1-.427l9.014-9.423a1.382,1.382,0,0,0,.383-.955V1.382A1.382,1.382,0,0,0,44.644,0Z" transform="translate(1.451 7.186)" fill="#df9804"/>
        <path id="Caminho_109" data-name="Caminho 109" d="M16.266,31.619l2.687,3.15,3.784-4.056-4.98-5.182,2.66-2.123V16.672H16.79L16.778,15.2l3.639-3.266V0H2.32V11.93L5.959,15.2l-.012,1.475H2.32v6.736l2.66,2.123L0,30.713l3.784,4.056,2.687-3.15.581.61L3.585,37.36l7.783.211,7.783-.211-3.466-5.131Z" transform="translate(13.052 46.942)" fill="#b9afb0"/>
        <rect id="Retângulo_171" data-name="Retângulo 171" width="10.449" height="3.454" rx="1.505" transform="translate(19.195 52.351)" fill="#606060"/>
        <rect id="Retângulo_172" data-name="Retângulo 172" width="7.143" height="2.194" rx="0.918" transform="translate(20.844 70.279)" fill="#606060"/>
        <rect id="Retângulo_173" data-name="Retângulo 173" width="5.811" height="7.28" rx="1.817" transform="translate(21.515 59.062)" fill="#606060"/>
        <path id="Caminho_110" data-name="Caminho 110" d="M16.266,31.619l2.687,3.15,3.784-4.056-4.98-5.182,2.66-2.123V16.672H16.79L16.778,15.2l3.639-3.266V0H2.32V11.93L5.959,15.2l-.012,1.475H2.32v6.736l2.66,2.123L0,30.713l3.784,4.056,2.687-3.15.581.61L3.585,37.36l7.783.211,7.783-.211-3.466-5.131Z" transform="translate(13.052 46.942)" fill="none" stroke="#222121" stroke-linecap="round" stroke-linejoin="round" stroke-width="1.179"/>
        <path id="Caminho_111" data-name="Caminho 111" d="M48.4,6.149,42.909.476A1.561,1.561,0,0,0,41.788,0H35.721a1.561,1.561,0,0,0-1.561,1.561V3.648H14.681V1.561A1.561,1.561,0,0,0,13.12,0H7.052A1.562,1.562,0,0,0,5.93.476L.439,6.148A1.56,1.56,0,0,0,0,7.234V35.267a1.561,1.561,0,0,0,.44,1.086l9.808,10.115a1.563,1.563,0,0,0,1.121.474h26.1a1.561,1.561,0,0,0,1.121-.474L48.4,36.353a1.562,1.562,0,0,0,.44-1.086V7.234A1.561,1.561,0,0,0,48.4,6.149Z" transform="translate(0)" fill="none" stroke="#222121" stroke-width="1.179"/>
        <path id="Caminho_112" data-name="Caminho 112" d="M30.688,5.946l-4.3-4.9A3.079,3.079,0,0,0,24.071,0H7.382A3.081,3.081,0,0,0,5.067,1.048l-4.3,4.9A3.081,3.081,0,0,0,0,7.98V29.2a3.08,3.08,0,0,0,.716,1.975l3.673,4.4a1.877,1.877,0,0,0,1.44.674h19.8a1.875,1.875,0,0,0,1.44-.674l3.673-4.4a3.084,3.084,0,0,0,.716-1.975V7.98A3.081,3.081,0,0,0,30.688,5.946Z" transform="translate(8.693 3.648)" fill="none" stroke="#222121" stroke-width="0.884"/>
        <path id="Caminho_113" data-name="Caminho 113" d="M0,0H6.035A1.5,1.5,0,0,1,7.187.539L8.766,2.428a1.5,1.5,0,0,0,1.152.538H33.243a1.5,1.5,0,0,0,1.107-.488L36.171.488A1.5,1.5,0,0,1,37.278,0H43.12" transform="translate(2.86 3.648)" fill="none" stroke="#222121" stroke-width="0.884"/>
        <rect id="Retângulo_174" data-name="Retângulo 174" width="10.449" height="3.454" rx="1.505" transform="translate(19.195 52.351)" fill="none" stroke="#222121" stroke-width="0.589"/>
        <rect id="Retângulo_175" data-name="Retângulo 175" width="7.143" height="2.194" rx="0.918" transform="translate(38.539 41.149) rotate(-45)" fill="#222121"/>
        <rect id="Retângulo_176" data-name="Retângulo 176" width="7.143" height="2.194" rx="0.918" transform="translate(20.844 70.279)" fill="none" stroke="#222121" stroke-width="0.589"/>
        <rect id="Retângulo_177" data-name="Retângulo 177" width="7.143" height="2.194" rx="0.918" transform="translate(8.566 42.7) rotate(-135)" fill="#222121"/>
        <rect id="Retângulo_178" data-name="Retângulo 178" width="7.143" height="2.194" rx="0.918" transform="matrix(-0.707, 0.707, -0.707, -0.707, 37.007, 13.976)" fill="#222121"/>
        <rect id="Retângulo_179" data-name="Retângulo 179" width="7.143" height="2.194" rx="0.918" transform="matrix(0.707, 0.707, -0.707, 0.707, 31.956, 27.931)" fill="#222121"/>
        <rect id="Retângulo_180" data-name="Retângulo 180" width="7.143" height="2.194" rx="0.918" transform="matrix(0.707, -0.707, 0.707, 0.707, 11.833, 32.982)" fill="#222121"/>
        <rect id="Retângulo_181" data-name="Retângulo 181" width="7.143" height="2.194" rx="0.918" transform="matrix(-0.707, -0.707, 0.707, -0.707, 16.884, 19.027)" fill="#222121"/>
        <rect id="Retângulo_182" data-name="Retângulo 182" width="5.811" height="7.28" rx="1.817" transform="translate(21.515 59.062)" fill="none" stroke="#222121" stroke-width="0.589"/>
        <path id="Caminho_114" data-name="Caminho 114" d="M24.679,18.644V4.741a.019.019,0,0,1,.006-.015l.934-.934a2.232,2.232,0,0,0,.471-2.587A2.195,2.195,0,0,0,22.58.641l-.848.848a.022.022,0,0,1-.016.007H4.6a.022.022,0,0,1-.015-.007L3.736.641a2.189,2.189,0,0,0-3.095,0h0a2.188,2.188,0,0,0,0,3.094l1,1a.021.021,0,0,1,.006.015V18.631a.019.019,0,0,1-.006.015l-.9.9a2.284,2.284,0,0,0-.17,3.124,2.189,2.189,0,0,0,3.163.072l.845-.846a.024.024,0,0,1,.015-.006H21.72a.024.024,0,0,1,.015.006l.789.789a2.231,2.231,0,0,0,2.587.471,2.2,2.2,0,0,0,.564-3.509l-.99-.99A.021.021,0,0,1,24.679,18.644Z" transform="translate(11.256 11.777)" fill="none" stroke="#222121" stroke-width="0.589"/>
        <path id="Caminho_115" data-name="Caminho 115" d="M4.339,34.415l2.268-3.357a.715.715,0,0,0-.075-.9L4.877,28.419a.72.72,0,0,0-1.07.028l-2.157,2.53L0,29.208l4.623-4.745a.72.72,0,0,0-.07-1.061l-2.8-2.234.018-4.5,2.9.047A.723.723,0,0,0,5.392,16l.021-2.65a.722.722,0,0,0-.24-.543L1.756,9.745,1.772,0,16.847.048,16.8,9.78l-3.4,3.034a.718.718,0,0,0-.239.54l.022,2.651a.722.722,0,0,0,.72.714h2.947L16.8,21.206l-2.78,2.2a.719.719,0,0,0-.071,1.061l4.624,4.811-1.65,1.7-2.159-2.531a.718.718,0,0,0-.547-.252.726.726,0,0,0-.522.224l-1.654,1.74a.715.715,0,0,0-.074.9l2.267,3.357L9.29,34.55ZM6.763,21.467A1.439,1.439,0,0,0,5.325,22.9v.087a1.439,1.439,0,0,0,1.438,1.438H11.8a1.439,1.439,0,0,0,1.438-1.438V22.9A1.439,1.439,0,0,0,11.8,21.467Zm1.7-11.217A2.472,2.472,0,0,0,6,12.718v3.109A2.472,2.472,0,0,0,8.466,18.3h1.64a2.472,2.472,0,0,0,2.469-2.469V12.718a2.472,2.472,0,0,0-2.469-2.468ZM5.789,3.539a2.111,2.111,0,1,0,0,4.222h7a2.111,2.111,0,0,0,0-4.222Z" transform="translate(15.134 48.429)" fill="#9c9595"/>
      </g>
    </g>
  </g>
</svg>
