<svg id="Camada_1" data-name="Camada 1" xmlns="http://www.w3.org/2000/svg" viewBox="0 0 64 64"><defs><style>.cls-1{fill:#c2c2c2;}.cls-2{fill:#07fafc;}.cls-3{fill:#90fcfd;}.cls-4{fill:#ebfefe;}</style></defs><circle cx="32" cy="32" r="23"/><path class="cls-1" d="M31.88,31.85,26.52,25.2s-.78-3.57-5.47-7.48c-7.41.65-9.79,8.44-9.64,12.36a25.83,25.83,0,0,1,2.77-.41c6.08-.57,9.14,1.41,9.14,1.41l8.48.9.2,0Z"/><path d="M10.7,31l0-.86C10.48,25.19,13.63,17.62,21,17l.3,0,.23.19C25.81,20.72,27,24,27.19,24.86l6.51,8.07-2-.21-8.65-.92-.15-.1s-3-1.82-8.67-1.29a26.21,26.21,0,0,0-2.7.39Zm12.86-.61,6.74.71-4.47-5.54,0-.18s-.78-3.27-5-6.86c-6.24.74-8.44,7.1-8.65,10.7.66-.11,1.31-.2,2-.26,5.55-.52,8.7,1,9.44,1.43"/><path class="cls-1" d="M26.52,25.2l5.36,6.65L32,32l.92-8.7s2-3.07,1.41-9.16c-5.69-4.8-12.87-1-15.53,1.9.83.56,1.58,1.13,2.25,1.68,4.69,3.91,5.47,7.48,5.47,7.48"/><path d="M32.54,33.88,31.3,32.32l-5.47-6.79,0-.17c0-.07-.83-3.42-5.21-7.07-.68-.56-1.42-1.11-2.19-1.63l-.72-.48.58-.64c3.34-3.61,10.9-6.73,16.56-2l.23.2,0,.3c.51,5.57-1,8.73-1.43,9.47Zm-5.35-9,4.26,5.28.75-7.09.1-.15s1.76-2.86,1.32-8.38c-4.93-3.91-11-1-13.66,1.42.54.4,1.07.8,1.56,1.21C25.81,20.72,27,24,27.19,24.86"/><path class="cls-1" d="M31.88,31.85,32,32l-.12-.15"/><polygon points="31.42 32.47 31.3 32.31 32.45 31.38 32.58 31.54 31.42 32.47"/><path class="cls-1" d="M33.92,11.36a26,26,0,0,1,.41,2.78c.56,6.09-1.41,9.16-1.41,9.16L32,32l.15-.12,6.64-5.38s3.56-.77,7.45-5.48c-.64-7.43-8.41-9.81-12.32-9.66"/><path d="M31.08,33.7l1.13-10.65.09-.15s1.82-3,1.29-8.69a26.8,26.8,0,0,0-.39-2.71L33,10.65l.86,0c4.9-.2,12.46,3,13.09,10.34l0,.3-.2.23c-3.56,4.3-6.87,5.46-7.68,5.69Zm2.56-10.16-.72,6.76,5.54-4.48.17,0s3.26-.79,6.85-5c-.73-6.25-7.1-8.46-10.67-8.67.11.66.2,1.32.26,2,.51,5.57-1,8.73-1.43,9.47"/><path class="cls-1" d="M47.92,18.76c-.56.84-1.12,1.59-1.67,2.26-3.9,4.71-7.46,5.48-7.46,5.48l-6.64,5.38L32,32l.21,0,8.47.9s3.06,2,9.14,1.41c4.79-5.71,1-12.9-1.9-15.57"/><path d="M45.58,35.07a13.41,13.41,0,0,1-5.14-1.43l-8.52-.9L32,32l-.45-.59,6.91-5.59.17,0s3.39-.81,7-5.23a27.27,27.27,0,0,0,1.63-2.2l.48-.72.63.59c3.6,3.34,6.72,10.92,2,16.59l-.19.23-.31,0a22,22,0,0,1-4.3,0M33.85,31.45l7.08.75.15.1s2.86,1.76,8.36,1.32c3.9-4.94,1-11-1.42-13.7-.39.55-.8,1.08-1.21,1.57-3.56,4.3-6.87,5.46-7.68,5.69Z"/><path class="cls-1" d="M32.15,31.88,32,32l.15-.12"/><polygon points="32.46 32.58 31.54 31.42 31.69 31.3 32.62 32.45 32.46 32.58"/><path class="cls-1" d="M52.59,33.92a25.83,25.83,0,0,1-2.77.41c-6.08.57-9.14-1.41-9.14-1.41L32.21,32,32,32l.13.16,5.35,6.64s.78,3.57,5.47,7.48c7.41-.65,9.79-8.44,9.64-12.36"/><path d="M42.71,47l-.23-.19C38.19,43.28,37,40,36.81,39.14l-6.52-8.09,2,.23,8.65.92.15.1s3,1.82,8.67,1.29a26.21,26.21,0,0,0,2.7-.39L53.3,33l0,.86c.19,4.92-3,12.49-10.32,13.13Zm-9-14.11,4.47,5.54,0,.17s.78,3.28,5,6.87c6.24-.74,8.44-7.1,8.65-10.7-.66.11-1.31.2-2,.26-5.55.51-8.7-1-9.44-1.43Z"/><path class="cls-1" d="M32.21,32,32,32l.21,0"/><polygon points="32.13 32.76 31.91 32.74 32.08 31.26 32.28 31.29 32.14 32.76 32.13 32.76"/><path class="cls-1" d="M43,46.28c-4.69-3.91-5.47-7.48-5.47-7.48l-5.35-6.64L32,32l0,.2-.9,8.5s-2,3.07-1.41,9.16c5.7,4.8,12.87,1,15.53-1.9-.83-.56-1.58-1.13-2.25-1.68"/><path d="M34.74,52.8a10.16,10.16,0,0,1-5.55-2.37l-.23-.2,0-.3c-.51-5.57,1-8.73,1.43-9.47l1.09-10.31,1.25,1.54,5.47,6.78,0,.18S39,42,43.42,45.71h0a27.07,27.07,0,0,0,2.19,1.63l.72.48-.58.64a14,14,0,0,1-11,4.34m-4.36-3.32c4.93,3.91,11,1,13.66-1.42-.55-.4-1.07-.8-1.56-1.21C38.19,43.28,37,40,36.81,39.14l-4.26-5.28L31.79,41l-.09.15S29.94,44,30.38,49.48"/><path class="cls-1" d="M32,32l.13.16Z"/><polygon points="31.56 32.63 31.42 32.46 32.57 31.53 32.7 31.7 31.56 32.63"/><path class="cls-1" d="M32,32l-.2,0-8.48-.9s-3.06-2-9.14-1.41c-4.79,5.71-1,12.9,1.9,15.57.56-.84,1.12-1.59,1.67-2.26,3.91-4.71,7.46-5.48,7.46-5.48l6.63-5.37L32,32"/><path d="M16.21,46.37l-.63-.59c-3.6-3.34-6.72-10.92-2-16.59l.19-.23.31,0c5.55-.52,8.7,1,9.44,1.43l9.25,1-.11,1-7.16,5.8-.17,0s-3.38.81-7,5.23a27.27,27.27,0,0,0-1.63,2.2Zm-1.65-16c-3.9,4.94-1,11,1.42,13.7.39-.55.79-1.08,1.21-1.57,3.56-4.3,6.87-5.46,7.68-5.69l5.28-4.27-7.08-.75-.15-.1s-2.86-1.76-8.36-1.32"/><path class="cls-1" d="M31.8,32l.2,0-.2,0"/><rect x="31.16" y="31.89" width="1.48" height="0.2" transform="translate(-3.26 60.36) rotate(-83.98)"/><path class="cls-1" d="M29.67,49.86c-.56-6.09,1.41-9.16,1.41-9.16l.9-8.5c0-.12,0-.2,0-.2l-.16.13L25.21,37.5s-3.55.77-7.46,5.48c.64,7.43,8.42,9.81,12.33,9.66a26,26,0,0,1-.41-2.78"/><path d="M28.43,53.33C23.65,52.84,17.58,49.62,17,43l0-.3.2-.23c3.56-4.3,6.87-5.46,7.68-5.69l8.06-6.53L31.79,41l-.09.15s-1.82,3-1.29,8.69a26.8,26.8,0,0,0,.39,2.71l.17.85-.86,0a12,12,0,0,1-1.68-.05M18.52,43.22c.73,6.25,7.06,8.45,10.67,8.67-.11-.66-.2-1.32-.26-2-.51-5.57,1-8.73,1.43-9.47l.72-6.76-5.54,4.48-.17,0s-3.26.78-6.85,5"/><path class="cls-1" d="M31.84,32.13,32,32l-.16.13"/><polygon points="32.31 32.7 31.72 31.98 31.26 31.93 31.72 31.97 31.38 31.55 32.91 30.3 32.7 32.38 32.31 32.7"/><path class="cls-1" d="M32,32.2l0-.2s0,.08,0,.2"/><rect x="31.89" y="31.36" width="0.2" height="1.48" transform="translate(-3.3 60.54) rotate(-83.96)"/><path class="cls-2" d="M39,37.23A8.74,8.74,0,1,1,37.22,25,8.72,8.72,0,0,1,39,37.23"/><path d="M31,41.81a9.8,9.8,0,0,1-4.88-1.9A9.85,9.85,0,1,1,31,41.81M32.78,24.4a7.63,7.63,0,1,0,3.78,1.47,7.62,7.62,0,0,0-3.78-1.47"/><path class="cls-3" d="M36.76,35.56a5.95,5.95,0,1,1-1.2-8.34,5.94,5.94,0,0,1,1.2,8.34"/><path class="cls-4" d="M35.23,34.41a4,4,0,1,1-.82-5.64,4,4,0,0,1,.82,5.64"/></svg>