<svg xmlns="http://www.w3.org/2000/svg" width="46.164" height="42.102" viewBox="0 0 46.164 42.102">
  <g id="Grupo_48970" data-name="Grupo 48970" transform="translate(7319.171 -12994)">
    <g id="Arte_136" data-name="Arte 136" transform="translate(-7318.303 12994)">
      <g id="Grupo_48835" data-name="Grupo 48835" transform="translate(0 0)">
        <g id="Grupo_48828" data-name="Grupo 48828" transform="translate(0 0)">
          <ellipse id="Elipse_2031" data-name="Elipse 2031" cx="19.985" cy="19.998" rx="19.985" ry="19.998" transform="translate(0.722 0.723)" fill="#eba815"/>
          <path id="Caminho_70859" data-name="Caminho 70859" d="M20.707,41.5A20.721,20.721,0,1,1,41.415,20.777,20.738,20.738,0,0,1,20.707,41.5Zm0-40A19.275,19.275,0,1,0,39.97,20.777,19.291,19.291,0,0,0,20.707,1.5Z" transform="translate(0 -0.056)"/>
        </g>
      </g>
    </g>
    <g id="ticket" transform="translate(-7319.171 12994.832)">
      <g id="Grupo_48969" data-name="Grupo 48969" transform="translate(0 0)">
        <g id="Grupo_48928" data-name="Grupo 48928" transform="translate(0.196 8.411)">
          <path id="Caminho_70913" data-name="Caminho 70913" d="M0,0,24.718,0l0,21.478L0,21.482Z" transform="translate(0 17.478) rotate(-45)" fill="#79f2aa"/>
        </g>
        <g id="Grupo_48929" data-name="Grupo 48929" transform="translate(16.343 0.874)">
          <path id="Caminho_70899" data-name="Caminho 70899" d="M35.362,1.5,28.344,8.518,45.379,25.553,56.929,14,44.427,1.5Z" transform="translate(-28.344 -1.5)" fill="#abb7bb"/>
        </g>
        <g id="Grupo_48930" data-name="Grupo 48930" transform="translate(7.983 12.966)">
          <rect id="Retângulo_3596" data-name="Retângulo 3596" width="20.544" height="8.815" rx="4.407" transform="translate(0 14.527) rotate(-45)" fill="#41f20f"/>
        </g>
        <g id="Grupo_48931" data-name="Grupo 48931" transform="translate(0 7.175)">
          <path id="Caminho_70900" data-name="Caminho 70900" d="M15.482,46.408a3.379,3.379,0,0,1-2.4-1L1.292,33.626a3.4,3.4,0,0,1,0-4.809l16.5-16.5,16.6,16.595-16.505,16.5A3.378,3.378,0,0,1,15.482,46.408ZM17.8,14.785,2.528,30.053a1.652,1.652,0,0,0,0,2.337L14.314,44.176a1.693,1.693,0,0,0,2.337,0L31.919,28.908Z" transform="translate(-0.296 -12.313)" fill="#222121"/>
        </g>
        <g id="Grupo_48932" data-name="Grupo 48932" transform="translate(10.096 10.077)" opacity="0.42">
          <path id="Caminho_70901" data-name="Caminho 70901" d="M17.622,41.813v-17.1l7.364-7.42,2.009,1.953V42.818l-2.348,2.664a2.51,2.51,0,0,1-3.76.007Z" transform="translate(-17.622 -17.294)" fill="#fff"/>
        </g>
        <g id="Grupo_48933" data-name="Grupo 48933" transform="translate(21.164 6.239)">
          <path id="Caminho_70902" data-name="Caminho 70902" d="M49.47,20.431,41.4,12.363c-1.158,1.175-3.919,3.81-3.919,3.81l-.866-.866c.449-.39,3.078-2.87,4.367-4.18l.412-.419,8.074,8.074,5.353-5.353.824.824Z" transform="translate(-36.617 -10.708)" fill="#747474"/>
        </g>
        <g id="Grupo_48934" data-name="Grupo 48934" transform="translate(15.107)">
          <path id="Caminho_70903" data-name="Caminho 70903" d="M44.494,26.162,26.223,7.892,34.115,0H43.9L57.28,13.376Zm-15.8-18.27,15.8,15.8L54.808,13.376,43.18,1.748H34.839Z" transform="translate(-26.223)" fill="#222121"/>
        </g>
        <g id="Grupo_48935" data-name="Grupo 48935" transform="translate(27.654 13.887)">
          <rect id="Retângulo_3597" data-name="Retângulo 3597" width="3.395" height="1.165" transform="translate(0 2.401) rotate(-45)" fill="#222121"/>
        </g>
        <g id="Grupo_48936" data-name="Grupo 48936" transform="translate(28.854 15.06)">
          <rect id="Retângulo_3598" data-name="Retângulo 3598" width="3.524" height="1.165" transform="translate(0 2.492) rotate(-45)" fill="#222121"/>
        </g>
        <g id="Grupo_48937" data-name="Grupo 48937" transform="translate(33.905 9.708)">
          <ellipse id="Elipse_2041" data-name="Elipse 2041" cx="2.715" cy="2.715" rx="2.715" ry="2.715" fill="#222121"/>
        </g>
        <g id="Grupo_48938" data-name="Grupo 48938" transform="translate(34.701 10.503)">
          <circle id="Elipse_2042" data-name="Elipse 2042" cx="1.92" cy="1.92" r="1.92" fill="#00ff6d"/>
        </g>
        <g id="Grupo_48944" data-name="Grupo 48944" transform="translate(3.104 16.975)">
          <g id="Grupo_48939" data-name="Grupo 48939" transform="translate(0.408 0.313)">
            <line id="Linha_582" data-name="Linha 582" y1="11.267" x2="11.232" fill="#00ff6d"/>
          </g>
          <g id="Grupo_48943" data-name="Grupo 48943">
            <g id="Grupo_48940" data-name="Grupo 48940" transform="translate(0 0.683)">
              <path id="Caminho_70904" data-name="Caminho 70904" d="M6.44,41.6l-.816-.8,10.467-10.5.816.8Z" transform="translate(-5.623 -30.305)" fill="#727171"/>
            </g>
            <g id="Grupo_48942" data-name="Grupo 48942" transform="translate(9.701)">
              <g id="Grupo_48941" data-name="Grupo 48941">
                <path id="Caminho_70905" data-name="Caminho 70905" d="M24.2,31.031a1.112,1.112,0,0,0,.007-1.585,1.144,1.144,0,0,0-1.6.031,1.112,1.112,0,0,0-.007,1.585A1.144,1.144,0,0,0,24.2,31.031Z" transform="translate(-22.272 -29.133)" fill="#727171"/>
              </g>
            </g>
          </g>
        </g>
        <g id="Grupo_48950" data-name="Grupo 48950" transform="translate(5.358 19.171)">
          <g id="Grupo_48945" data-name="Grupo 48945" transform="translate(0.408 0.313)">
            <line id="Linha_583" data-name="Linha 583" y1="11.267" x2="11.232" fill="#00ff6d"/>
          </g>
          <g id="Grupo_48949" data-name="Grupo 48949">
            <g id="Grupo_48946" data-name="Grupo 48946" transform="translate(0 0.683)">
              <path id="Caminho_70906" data-name="Caminho 70906" d="M10.308,45.367l-.816-.8,10.467-10.5.816.8Z" transform="translate(-9.492 -34.073)" fill="#727171"/>
            </g>
            <g id="Grupo_48948" data-name="Grupo 48948" transform="translate(9.701)">
              <g id="Grupo_48947" data-name="Grupo 48947">
                <path id="Caminho_70907" data-name="Caminho 70907" d="M28.072,34.8a1.112,1.112,0,0,0,.008-1.585,1.143,1.143,0,0,0-1.6.031,1.111,1.111,0,0,0-.008,1.585A1.144,1.144,0,0,0,28.072,34.8Z" transform="translate(-26.14 -32.901)" fill="#727171"/>
              </g>
            </g>
          </g>
        </g>
        <g id="Grupo_48956" data-name="Grupo 48956" transform="translate(7.551 21.392)">
          <g id="Grupo_48951" data-name="Grupo 48951" transform="translate(0.413 0.317)">
            <line id="Linha_584" data-name="Linha 584" y1="11.408" x2="11.373" fill="#00ff6d"/>
          </g>
          <g id="Grupo_48955" data-name="Grupo 48955">
            <g id="Grupo_48952" data-name="Grupo 48952" transform="translate(0 0.692)">
              <path id="Caminho_70908" data-name="Caminho 70908" d="M14.082,49.337l-.827-.805L23.853,37.9l.827.805Z" transform="translate(-13.255 -37.901)" fill="#727171"/>
            </g>
            <g id="Grupo_48954" data-name="Grupo 48954" transform="translate(9.822)">
              <g id="Grupo_48953" data-name="Grupo 48953" transform="translate(0)">
                <path id="Caminho_70909" data-name="Caminho 70909" d="M32.069,38.636a1.125,1.125,0,0,0,.007-1.6,1.158,1.158,0,0,0-1.623.031,1.126,1.126,0,0,0-.008,1.605A1.158,1.158,0,0,0,32.069,38.636Z" transform="translate(-30.112 -36.714)" fill="#727171"/>
              </g>
            </g>
          </g>
        </g>
        <g id="Grupo_48962" data-name="Grupo 48962" transform="translate(9.982 23.324)">
          <g id="Grupo_48957" data-name="Grupo 48957" transform="translate(0.413 0.753)">
            <line id="Linha_585" data-name="Linha 585" y1="11.408" x2="11.373" fill="#00ff6d"/>
          </g>
          <g id="Grupo_48961" data-name="Grupo 48961" transform="translate(0 0)">
            <g id="Grupo_48958" data-name="Grupo 48958" transform="translate(0 1.127)">
              <path id="Caminho_70910" data-name="Caminho 70910" d="M18.253,53.4l-.827-.805,10.6-10.631.827.805Z" transform="translate(-17.427 -41.964)" fill="#727171"/>
            </g>
            <g id="Grupo_48960" data-name="Grupo 48960" transform="translate(9.391)">
              <g id="Grupo_48959" data-name="Grupo 48959" transform="translate(0)">
                <ellipse id="Elipse_2043" data-name="Elipse 2043" cx="1.157" cy="1.127" rx="1.157" ry="1.127" transform="translate(0 1.238) rotate(-32.357)" fill="#727171"/>
              </g>
            </g>
          </g>
        </g>
        <g id="Grupo_48968" data-name="Grupo 48968" transform="translate(12.274 25.992)">
          <g id="Grupo_48963" data-name="Grupo 48963" transform="translate(0.413 0.317)">
            <line id="Linha_586" data-name="Linha 586" y1="11.408" x2="11.373" fill="#00ff6d"/>
          </g>
          <g id="Grupo_48967" data-name="Grupo 48967">
            <g id="Grupo_48964" data-name="Grupo 48964" transform="translate(0 0.692)">
              <path id="Caminho_70911" data-name="Caminho 70911" d="M22.188,57.231l-.827-.805L31.959,45.8l.827.805Z" transform="translate(-21.361 -45.795)" fill="#727171"/>
            </g>
            <g id="Grupo_48966" data-name="Grupo 48966" transform="translate(9.823)">
              <g id="Grupo_48965" data-name="Grupo 48965">
                <path id="Caminho_70912" data-name="Caminho 70912" d="M40.175,46.53a1.127,1.127,0,0,0,.008-1.605,1.158,1.158,0,0,0-1.624.031,1.125,1.125,0,0,0-.008,1.6A1.159,1.159,0,0,0,40.175,46.53Z" transform="translate(-38.218 -44.608)" fill="#727171"/>
              </g>
            </g>
          </g>
        </g>
      </g>
    </g>
  </g>
</svg>
