<svg xmlns="http://www.w3.org/2000/svg" xmlns:xlink="http://www.w3.org/1999/xlink" width="23.321" height="22.281" viewBox="0 0 23.321 22.281">
  <defs>
    <linearGradient id="linear-gradient" x1="0.151" y1="0.223" x2="0.849" y2="0.958" gradientUnits="objectBoundingBox">
      <stop offset="0" stop-color="#ffdc00"/>
      <stop offset="1" stop-color="#cb6615"/>
    </linearGradient>
  </defs>
  <g id="Fav_star" data-name="Fav star" transform="translate(11.66 11.141)">
    <g id="Grupo_4591" data-name="Grupo 4591" transform="translate(-11.66 -11.141)">
      <path id="Caminho_7552" data-name="Caminho 7552" d="M5.1,22.281a1.037,1.037,0,0,1-1.032-1.145l.7-6.687-4.5-5A1.038,1.038,0,0,1,.821,7.741L7.4,6.339,10.762.518a1.037,1.037,0,0,1,1.8,0l3.366,5.821,6.576,1.4a1.037,1.037,0,0,1,.555,1.708l-4.5,5,.7,6.687A1.037,1.037,0,0,1,17.8,22.192L11.66,19.46,5.517,22.192A1.038,1.038,0,0,1,5.1,22.281Z" transform="translate(0)"/>
      <path id="Caminho_7553" data-name="Caminho 7553" d="M41.354,8.395l-3.6-6.22v10.1Z" transform="translate(-26.097 -1.503)" fill="#993415"/>
      <path id="Caminho_7554" data-name="Caminho 7554" d="M10.386,22.316l-7.027,1.5L13.982,26.2Z" transform="translate(-2.322 -15.424)" fill="#eba815"/>
      <path id="Caminho_7555" data-name="Caminho 7555" d="M43.576,32.509l4.8-5.342L37.757,29.552Z" transform="translate(-26.097 -18.777)" fill="#993415"/>
      <path id="Caminho_7556" data-name="Caminho 7556" d="M37.757,42.074l6.565,2.918-6.565-10.1Z" transform="translate(-26.097 -24.115)" fill="#cb6615"/>
      <path id="Caminho_7557" data-name="Caminho 7557" d="M17.245,37.847,16.5,44.993l6.565-10.1Z" transform="translate(-11.403 -24.115)" fill="#fccb68"/>
      <path id="Caminho_7558" data-name="Caminho 7558" d="M29.709,2.175l-3.6,6.22,3.6,3.883Z" transform="translate(-18.049 -1.503)" fill="#fccb68"/>
      <path id="Caminho_7559" data-name="Caminho 7559" d="M3.359,27.167l4.8,5.342,5.819-2.957Z" transform="translate(-2.322 -18.777)" fill="#cb6615"/>
      <path id="Caminho_7560" data-name="Caminho 7560" d="M16.5,44.993l6.565-2.918V34.89Z" transform="translate(-11.403 -24.115)" fill="#993415"/>
      <path id="Caminho_7561" data-name="Caminho 7561" d="M37.757,34.89l6.565,10.1-.747-7.146Z" transform="translate(-26.097 -24.115)" fill="#6d1a0c"/>
      <path id="Caminho_7562" data-name="Caminho 7562" d="M48.38,23.814l-7.027-1.5-3.6,3.883Z" transform="translate(-26.097 -15.424)" fill="#cb6615"/>
      <path id="Caminho_7563" data-name="Caminho 7563" d="M24.779,17.032l1.963,3.4,3.836.818-2.623,2.916.408,3.9-3.584-1.593L21.2,28.061l.408-3.9-2.623-2.916,3.836-.818Z" transform="translate(-13.119 -11.772)" fill="url(#linear-gradient)"/>
      <path id="Caminho_7564" data-name="Caminho 7564" d="M18.981,21.245l3.836-.818,1.963-3.4-1.634,3.9Z" transform="translate(-13.119 -11.772)" fill="#fff"/>
      <path id="Caminho_7565" data-name="Caminho 7565" d="M26.153,44.017l.408-3.9.524,1.153Z" transform="translate(-18.076 -27.728)" fill="#fff"/>
      <path id="Caminho_7566" data-name="Caminho 7566" d="M3.359,9.893l7.34-1.16,3.283-6.558-3.6,6.22Z" transform="translate(-2.322 -1.503)" fill="#fff"/>
    </g>
  </g>
</svg>
