<svg xmlns="http://www.w3.org/2000/svg" width="22.5" height="22.5" viewBox="0 0 22.5 22.5">
  <path id="Icon_material-memory" data-name="Icon material-memory" d="M19.5,12H12v7.5h7.5ZM17,17H14.5V14.5H17Zm10-2.5V12H24.5V9.5A2.507,2.507,0,0,0,22,7H19.5V4.5H17V7H14.5V4.5H12V7H9.5A2.507,2.507,0,0,0,7,9.5V12H4.5v2.5H7V17H4.5v2.5H7V22a2.507,2.507,0,0,0,2.5,2.5H12V27h2.5V24.5H17V27h2.5V24.5H22A2.507,2.507,0,0,0,24.5,22V19.5H27V17H24.5V14.5ZM22,22H9.5V9.5H22Z" transform="translate(-4.5 -4.5)" fill="#fff"/>
</svg>
