<svg xmlns="http://www.w3.org/2000/svg" xmlns:xlink="http://www.w3.org/1999/xlink" width="20.517" height="20.329" viewBox="0 0 20.517 20.329">
  <defs>
    <clipPath id="clip-path">
      <rect id="Retângulo_2222" data-name="Retângulo 2222" width="20.517" height="20.329" transform="translate(0 0)" fill="none"/>
    </clipPath>
  </defs>
  <g id="Grupo_34706" data-name="Grupo 34706" transform="translate(0 0)">
    <g id="Grupo_34706-2" data-name="Grupo 34706" clip-path="url(#clip-path)">
      <path id="Caminho_51558" data-name="Caminho 51558" d="M16.191,13.139c0,1.4-3.4,2.54-7.6,2.54S1,14.542,1,13.139c0-.873,1.318-1.644,3.325-2.1" fill="none" stroke="#fff" stroke-miterlimit="10" stroke-width="2"/>
      <path id="Caminho_51559" data-name="Caminho 51559" d="M16.191,13.139V16.79c0,1.4-3.4,2.539-7.6,2.539S1,18.192,1,16.79V13.139" fill="none" stroke="#fff" stroke-miterlimit="10" stroke-width="2"/>
      <path id="Caminho_51560" data-name="Caminho 51560" d="M16.192,5.8c2.007.457,3.325,1.227,3.325,2.1,0,1.4-3.4,2.539-7.6,2.539a29.77,29.77,0,0,1-5.375-.81" fill="none" stroke="#fff" stroke-miterlimit="10" stroke-width="2"/>
      <path id="Caminho_51561" data-name="Caminho 51561" d="M19.517,7.905v3.651c0,1.4-3.4,2.539-7.6,2.539s-7.595-1.137-7.595-2.539V9.291" fill="none" stroke="#fff" stroke-miterlimit="10" stroke-width="2"/>
      <path id="Caminho_51562" data-name="Caminho 51562" d="M16.191,3.54c0,1.4-3.4,2.54-7.6,2.54S1,4.943,1,3.54,4.4,1,8.6,1,16.191,2.137,16.191,3.54Z" fill="none" stroke="#fff" stroke-miterlimit="10" stroke-width="2"/>
      <path id="Caminho_51563" data-name="Caminho 51563" d="M16.191,3.54V7.191c0,1.4-3.4,2.539-7.6,2.539S1,8.593,1,7.191V3.54" fill="none" stroke="#fff" stroke-miterlimit="10" stroke-width="2"/>
    </g>
  </g>
</svg>
